<?xml version="1.0" encoding="UTF-8" standalone="no"?>
<!-- Generator: Adobe Illustrator 21.0.2, SVG Export Plug-In . SVG Version: 6.00 Build 0)  -->

<svg
   xmlns:dc="http://purl.org/dc/elements/1.1/"
   xmlns:cc="http://creativecommons.org/ns#"
   xmlns:rdf="http://www.w3.org/1999/02/22-rdf-syntax-ns#"
   xmlns:svg="http://www.w3.org/2000/svg"
   xmlns="http://www.w3.org/2000/svg"
   xmlns:sodipodi="http://sodipodi.sourceforge.net/DTD/sodipodi-0.dtd"
   xmlns:inkscape="http://www.inkscape.org/namespaces/inkscape"
   version="1.1"
   id="Layer_1"
   x="0px"
   y="0px"
   viewBox="0 0 40 40"
   style="enable-background:new 0 0 40 40;"
   xml:space="preserve"
   inkscape:version="0.48.5 r10040"
   width="100%"
   height="100%"
   sodipodi:docname="Bottle Of Water-595b40b65ba036ed117d3819.svg"><metadata
     id="metadata45"><rdf:RDF><cc:Work
         rdf:about=""><dc:format>image/svg+xml</dc:format><dc:type
           rdf:resource="http://purl.org/dc/dcmitype/StillImage" /><dc:title></dc:title></cc:Work></rdf:RDF></metadata><defs
     id="defs43" /><sodipodi:namedview
     pagecolor="#ffffff"
     bordercolor="#666666"
     borderopacity="1"
     objecttolerance="10"
     gridtolerance="10"
     guidetolerance="10"
     inkscape:pageopacity="0"
     inkscape:pageshadow="2"
     inkscape:window-width="1920"
     inkscape:window-height="1058"
     id="namedview41"
     showgrid="false"
     inkscape:zoom="11.8"
     inkscape:cx="16.095776"
     inkscape:cy="24.462372"
     inkscape:window-x="1920"
     inkscape:window-y="0"
     inkscape:window-maximized="1"
     inkscape:current-layer="Layer_1" /><path
     style="fill:#fefed5;fill-opacity:1"
     d="M 12,38.5 C 10.621,38.5 9.5,37.378 9.5,36 v -5.757 c 0,-0.667 0.26,-1.295 0.732,-1.768 L 10.5,28.207 V 18.793 L 10.232,18.525 C 9.76,18.053 9.5,17.425 9.5,16.757 V 15 c 0,-3.584 2.916,-6.5 6.5,-6.5 h 0.5 v -3 h 7 v 3 H 24 c 3.584,0 6.5,2.916 6.5,6.5 v 1.757 c 0,0.667 -0.26,1.295 -0.732,1.768 L 29.5,18.793 v 9.414 l 0.268,0.268 c 0.473,0.473 0.732,1.101 0.732,1.768 V 36 c 0,1.378 -1.121,2.5 -2.5,2.5 H 12 z"
     id="path7"
     inkscape:connector-curvature="0" /><path
     style="fill:#ffffff;fill-opacity:1"
     d="m 23,6 v 2 1 h 1 c 3.308,0 6,2.692 6,6 v 1.757 c 0,0.534 -0.208,1.037 -0.586,1.414 L 29.293,18.292 29,18.586 V 19 v 9 0.414 l 0.293,0.293 0.121,0.121 C 29.792,29.206 30,29.708 30,30.243 V 36 c 0,1.103 -0.897,2 -2,2 H 12 c -1.103,0 -2,-0.897 -2,-2 v -5.757 c 0,-0.534 0.208,-1.036 0.586,-1.414 L 10.707,28.708 11,28.414 V 28 19 18.586 L 10.707,18.293 10.586,18.172 C 10.208,17.794 10,17.292 10,16.757 V 15 c 0,-3.308 2.692,-6 6,-6 h 1 V 8 6 h 6 m 1,-1 h -8 v 3 c -3.866,0 -7,3.134 -7,7 v 1.757 c 0,0.796 0.316,1.559 0.879,2.121 L 10,19 v 9 L 9.879,28.121 C 9.316,28.684 9,29.447 9,30.243 V 36 c 0,1.657 1.343,3 3,3 h 16 c 1.657,0 3,-1.343 3,-3 v -5.757 c 0,-0.796 -0.316,-1.559 -0.879,-2.121 L 30,28 v -9 l 0.121,-0.121 C 30.684,18.316 31,17.553 31,16.757 V 15 C 31,11.134 27.866,8 24,8 V 5 l 0,0 z"
     id="path11"
     inkscape:connector-curvature="0" /><path
     style="fill:#ff9234;fill-opacity:1"
     d="M29.414,18.172C29.792,17.794,30,17.292,30,16.757V15H10v1.757c0,0.534,0.208,1.036,0.586,1.414  L11,18.586v9.828l-0.414,0.414C10.208,29.206,10,29.708,10,30.243V36c0,1.103,0.897,2,2,2h16c1.103,0,2-0.897,2-2v-5.757  c0-0.534-0.208-1.036-0.586-1.414L29,28.414v-9.828L29.414,18.172z"
     id="path13" /><path
     inkscape:connector-curvature="0"
     id="path17"
     d="M 16,5.5 C 15.725,5.5 15.5,5.276 15.5,5 V 3 c 0,-0.827 0.673,-1.5 1.5,-1.5 h 6 c 0.827,0 1.5,0.673 1.5,1.5 v 2 c 0,0.276 -0.225,0.5 -0.5,0.5 h -8 z"
     style="fill:#ffcd3c;fill-opacity:1" /><path
     style="fill:#ffffff;fill-opacity:1"
     d="m 23,2 c 0.551,0 1,0.449 1,1 V 5 H 16 V 3 c 0,-0.551 0.449,-1 1,-1 h 6 m 0,-1 h -6 c -1.105,0 -2,0.895 -2,2 v 2 c 0,0.552 0.448,1 1,1 h 8 c 0.552,0 1,-0.448 1,-1 V 3 C 25,1.895 24.105,1 23,1 l 0,0 z"
     id="path21"
     inkscape:connector-curvature="0" /><line
     style="fill:none;stroke:#FFFFFF;stroke-linecap:round;stroke-miterlimit:10;"
     x1="14.464"
     y1="33.607"
     x2="14.464"
     y2="13.893"
     id="line23" /><line
     id="line27"
     y2="19.5"
     x2="29"
     y1="19.5"
     x1="16.5"
     style="fill:none;stroke:#ffffff;stroke-linecap:round;stroke-miterlimit:10;stroke-opacity:1" /><g
     id="g29"><line
       style="fill:none;stroke:#ffffff;stroke-linecap:round;stroke-miterlimit:10;stroke-opacity:1"
       x1="11"
       y1="19.5"
       x2="12.5"
       y2="19.5"
       id="line31" /></g><line
     id="line35"
     y2="27.5"
     x2="29"
     y1="27.5"
     x1="16.5"
     style="fill:none;stroke:#ffffff;stroke-linecap:round;stroke-miterlimit:10;stroke-opacity:1" /><line
     id="line39"
     y2="27.5"
     x2="12.5"
     y1="27.5"
     x1="11"
     style="fill:none;stroke:#ffffff;stroke-linecap:round;stroke-miterlimit:10;stroke-opacity:1" /></svg>