<?xml version="1.0" encoding="iso-8859-1"?>
<!-- Generator: Adobe Illustrator 21.0.2, SVG Export Plug-In . SVG Version: 6.00 Build 0)  -->
<svg xmlns="http://www.w3.org/2000/svg" xmlns:xlink="http://www.w3.org/1999/xlink" version="1.1" id="Layer_1" x="0px" y="0px" viewBox="0 0 40 40" style="enable-background:new 0 0 40 40;" xml:space="preserve">
<g>
	<g>
		<path style="fill:#DFF0FE;" d="M12,38.5c-1.379,0-2.5-1.122-2.5-2.5v-5.757c0-0.667,0.26-1.295,0.732-1.768l0.268-0.268v-9.414    l-0.268-0.268C9.76,18.053,9.5,17.425,9.5,16.757V15c0-3.584,2.916-6.5,6.5-6.5h0.5v-3h7v3H24c3.584,0,6.5,2.916,6.5,6.5v1.757    c0,0.667-0.26,1.295-0.732,1.768L29.5,18.793v9.414l0.268,0.268c0.473,0.473,0.732,1.101,0.732,1.768V36    c0,1.378-1.121,2.5-2.5,2.5H12z"/>
	</g>
	<g>
		<path style="fill:#4788C7;" d="M23,6v2v1h1c3.308,0,6,2.692,6,6v1.757c0,0.534-0.208,1.037-0.586,1.414l-0.121,0.121L29,18.586V19    v9v0.414l0.293,0.293l0.121,0.121C29.792,29.206,30,29.708,30,30.243V36c0,1.103-0.897,2-2,2H12c-1.103,0-2-0.897-2-2v-5.757    c0-0.534,0.208-1.036,0.586-1.414l0.121-0.121L11,28.414V28v-9v-0.414l-0.293-0.293l-0.121-0.121    C10.208,17.794,10,17.292,10,16.757V15c0-3.308,2.692-6,6-6h1V8V6H23 M24,5h-8v3c-3.866,0-7,3.134-7,7v1.757    c0,0.796,0.316,1.559,0.879,2.121L10,19v9l-0.121,0.121C9.316,28.684,9,29.447,9,30.243V36c0,1.657,1.343,3,3,3h16    c1.657,0,3-1.343,3-3v-5.757c0-0.796-0.316-1.559-0.879-2.121L30,28v-9l0.121-0.121C30.684,18.316,31,17.553,31,16.757V15    c0-3.866-3.134-7-7-7V5L24,5z"/>
	</g>
</g>
<path style="fill:#B6DCFE;" d="M29.414,18.172C29.792,17.794,30,17.292,30,16.757V15H10v1.757c0,0.534,0.208,1.036,0.586,1.414  L11,18.586v9.828l-0.414,0.414C10.208,29.206,10,29.708,10,30.243V36c0,1.103,0.897,2,2,2h16c1.103,0,2-0.897,2-2v-5.757  c0-0.534-0.208-1.036-0.586-1.414L29,28.414v-9.828L29.414,18.172z"/>
<g>
	<path style="fill:#98CCFD;" d="M16,5.5c-0.275,0-0.5-0.224-0.5-0.5V3c0-0.827,0.673-1.5,1.5-1.5h6c0.827,0,1.5,0.673,1.5,1.5v2   c0,0.276-0.225,0.5-0.5,0.5H16z"/>
	<g>
		<path style="fill:#4788C7;" d="M23,2c0.551,0,1,0.449,1,1v2h-8V3c0-0.551,0.449-1,1-1H23 M23,1h-6c-1.105,0-2,0.895-2,2v2    c0,0.552,0.448,1,1,1h8c0.552,0,1-0.448,1-1V3C25,1.895,24.105,1,23,1L23,1z"/>
	</g>
</g>
<line style="fill:none;stroke:#FFFFFF;stroke-linecap:round;stroke-miterlimit:10;" x1="14.464" y1="33.607" x2="14.464" y2="13.893"/>
<g>
	<line style="fill:none;stroke:#4788C7;stroke-linecap:round;stroke-miterlimit:10;" x1="16.5" y1="19.5" x2="29" y2="19.5"/>
</g>
<g>
	<line style="fill:none;stroke:#4788C7;stroke-linecap:round;stroke-miterlimit:10;" x1="11" y1="19.5" x2="12.5" y2="19.5"/>
</g>
<g>
	<line style="fill:none;stroke:#4788C7;stroke-linecap:round;stroke-miterlimit:10;" x1="16.5" y1="27.5" x2="29" y2="27.5"/>
</g>
<g>
	<line style="fill:none;stroke:#4788C7;stroke-linecap:round;stroke-miterlimit:10;" x1="11" y1="27.5" x2="12.5" y2="27.5"/>
</g>
</svg>
