<?xml version="1.0" encoding="UTF-8" standalone="no"?>
<!-- Generator: Adobe Illustrator 19.0.0, SVG Export Plug-In . SVG Version: 6.00 Build 0)  -->

<svg
   xmlns:dc="http://purl.org/dc/elements/1.1/"
   xmlns:cc="http://creativecommons.org/ns#"
   xmlns:rdf="http://www.w3.org/1999/02/22-rdf-syntax-ns#"
   xmlns:svg="http://www.w3.org/2000/svg"
   xmlns="http://www.w3.org/2000/svg"
   xmlns:sodipodi="http://sodipodi.sourceforge.net/DTD/sodipodi-0.dtd"
   xmlns:inkscape="http://www.inkscape.org/namespaces/inkscape"
   version="1.1"
   id="Layer_1"
   x="0px"
   y="0px"
   viewBox="0 0 511.999 511.999"
   style="enable-background:new 0 0 511.999 511.999;"
   xml:space="preserve"
   inkscape:version="0.48.5 r10040"
   width="100%"
   height="100%"
   sodipodi:docname="drink.svg"><metadata
     id="metadata47"><rdf:RDF><cc:Work
         rdf:about=""><dc:format>image/svg+xml</dc:format><dc:type
           rdf:resource="http://purl.org/dc/dcmitype/StillImage" /></cc:Work></rdf:RDF></metadata><defs
     id="defs45" /><sodipodi:namedview
     pagecolor="#ffffff"
     bordercolor="#666666"
     borderopacity="1"
     objecttolerance="10"
     gridtolerance="10"
     guidetolerance="10"
     inkscape:pageopacity="0"
     inkscape:pageshadow="2"
     inkscape:window-width="1920"
     inkscape:window-height="1027"
     id="namedview43"
     showgrid="false"
     inkscape:zoom="0.4609384"
     inkscape:cx="-101.9659"
     inkscape:cy="255.9995"
     inkscape:window-x="0"
     inkscape:window-y="31"
     inkscape:window-maximized="1"
     inkscape:current-layer="Layer_1" /><path
     inkscape:connector-curvature="0"
     id="path9"
     d="m 306.779,269.912 -35.262,-12.485 v -70.134 c 0,-4.436 -3.069,-8.282 -7.395,-9.264 -4.325,-0.984 -8.756,1.158 -10.672,5.158 l -53.625,111.895 c -1.197,2.498 -1.244,5.393 -0.13,7.929 1.115,2.535 3.28,4.459 5.93,5.266 l 34.859,10.617 v 71.87 c 0,4.436 3.069,8.282 7.395,9.264 0.704,0.16 1.41,0.238 2.109,0.238 3.591,0 6.959,-2.047 8.564,-5.396 l 53.626,-111.895 c 1.165,-2.431 1.243,-5.242 0.213,-7.733 -1.031,-2.494 -3.071,-4.431 -5.612,-5.33 z m -47.296,79.045 v -37.102 c 0,-4.18 -2.734,-7.87 -6.733,-9.089 l -31.012,-9.445 30.779,-64.222 v 35.042 c 0,4.024 2.536,7.613 6.33,8.956 l 31.627,11.198 -30.991,64.662 z"
     style="fill:#ffffff;fill-opacity:1" /><path
     inkscape:connector-curvature="0"
     id="path11"
     d="m 368.998,350.876 c -0.014,-0.047 -0.029,-0.094 -0.044,-0.141 -0.893,-2.844 -1.808,-5.717 -2.732,-8.618 -6.962,-21.832 -14.161,-44.409 -14.161,-61.48 0,-16.294 6.913,-30.042 13.597,-43.336 6.407,-12.747 13.035,-25.928 13.035,-40.746 v -69.224 c 0,-22.464 -15.678,-41.322 -36.665,-46.24 v -3.609 c 0,-19.209 -15.627,-34.835 -34.835,-34.835 H 280.279 V 19.001 h 0.65 c 5.247,0 9.501,-4.254 9.501,-9.501 0,-5.247 -4.256,-9.5 -9.502,-9.5 h -49.856 c -5.247,0 -9.501,4.254 -9.501,9.501 0,5.247 4.254,9.501 9.501,9.501 h 0.649 v 23.646 h -26.914 c -19.208,0 -34.835,15.627 -34.835,34.835 v 3.609 c -20.986,4.919 -36.664,23.775 -36.664,46.24 v 69.224 c 0,14.818 6.628,27.999 13.036,40.745 6.685,13.296 13.597,27.042 13.597,43.336 0,17.071 -7.199,39.646 -14.161,61.48 -0.925,2.901 -1.839,5.775 -2.732,8.618 -0.015,0.047 -0.03,0.094 -0.044,0.141 -5.28,16.816 -9.696,32.415 -9.696,44.398 v 69.224 c 0,26.194 21.309,47.503 47.503,47.503 h 150.382 c 26.194,0 47.503,-21.309 47.503,-47.503 v -69.222 c -0.003,-11.986 -4.419,-27.583 -9.698,-44.4 z M 250.72,19.001 h 10.557 V 42.647 H 250.72 V 19.001 z m -61.75,58.482 c 0,-8.732 7.103,-15.834 15.834,-15.834 h 102.388 c 8.732,0 15.834,7.103 15.834,15.834 V 79.83 H 188.97 v -2.347 z m -36.665,317.791 c 0,-0.822 0.041,-1.691 0.1,-2.583 h 30.864 c 5.247,0 9.501,-4.254 9.501,-9.501 0,-5.247 -4.254,-9.501 -9.501,-9.501 h -27.208 c 0.904,-3.377 1.933,-6.911 3.038,-10.556 h 24.171 c 5.247,0 9.501,-4.254 9.501,-9.501 0,-5.247 -4.254,-9.501 -9.501,-9.501 h -18.193 c 1.117,-3.513 2.227,-7.035 3.31,-10.556 h 14.883 c 5.247,0 9.501,-4.254 9.501,-9.501 0,-5.247 -4.254,-9.501 -9.501,-9.501 h -9.471 c 3.047,-11.944 5.142,-23.485 5.142,-33.937 0,-2.993 -0.189,-5.887 -0.504,-8.71 h 4.835 c 5.247,0 9.501,-4.254 9.501,-9.501 0,-5.247 -4.254,-9.501 -9.501,-9.501 h -9.208 c -1.257,-3.653 -2.679,-7.165 -4.187,-10.556 h 13.395 c 5.247,0 9.501,-4.254 9.501,-9.501 0,-5.247 -4.254,-9.501 -9.501,-9.501 h -22.643 c -1.787,-3.637 -3.419,-7.137 -4.757,-10.556 h 27.4 c 5.247,0 9.501,-4.254 9.501,-9.501 0,-5.247 -4.254,-9.501 -9.501,-9.501 h -30.964 v -66.48 c 0,-15.716 12.785,-28.502 28.502,-28.502 h 150.382 c 15.716,0 28.502,12.785 28.502,28.502 v 66.477 h -0.001 -30.964 c -5.247,0 -9.501,4.254 -9.501,9.501 0,5.247 4.254,9.501 9.501,9.501 h 27.4 c -1.338,3.42 -2.969,6.92 -4.757,10.556 h -22.644 c -5.247,0 -9.501,4.254 -9.501,9.501 0,5.247 4.254,9.501 9.501,9.501 h 13.395 c -1.507,3.391 -2.931,6.902 -4.187,10.556 h -9.208 c -5.247,0 -9.501,4.254 -9.501,9.501 0,5.247 4.254,9.501 9.501,9.501 h 4.835 c -0.317,2.822 -0.504,5.717 -0.504,8.71 0,10.452 2.095,21.993 5.142,33.937 h -9.473 c -5.247,0 -9.501,4.254 -9.501,9.501 0,5.247 4.254,9.5 9.501,9.5 h 14.883 c 1.083,3.52 2.191,7.044 3.31,10.556 h -18.193 c -5.247,0 -9.501,4.254 -9.501,9.501 0,5.247 4.254,9.501 9.501,9.501 h 24.171 c 1.106,3.644 2.133,7.18 3.038,10.556 h -27.208 c -5.247,0 -9.501,4.254 -9.501,9.501 0,5.247 4.254,9.501 9.501,9.501 h 30.864 c 0.06,0.892 0.1,1.761 0.1,2.583 v 38.797 H 152.305 v -38.793 z m 207.386,69.223 c 0,15.716 -12.785,28.502 -28.502,28.502 H 180.807 c -15.716,0 -28.502,-12.785 -28.502,-28.502 v -11.426 h 207.386 v 11.426 z"
     style="fill:#ffffff;fill-opacity:1" /><g
     id="g13" /><g
     id="g15" /><g
     id="g17" /><g
     id="g19" /><g
     id="g21" /><g
     id="g23" /><g
     id="g25" /><g
     id="g27" /><g
     id="g29" /><g
     id="g31" /><g
     id="g33" /><g
     id="g35" /><g
     id="g37" /><g
     id="g39" /><g
     id="g41" /></svg>